<svg enable-background="new 0 0 213.3 57.2" viewBox="0 0 213.3 57.2" xmlns="http://www.w3.org/2000/svg"><g fill="#1d1d1b"><path d="m129.2 33.6v-20.7h-5.3v9.6l-12-9.7v20.7h5.3v-9.6z"/><path d="m81 33.5c-1.6 0-2.8-.2-3.4-.4-.1 0-.2-.1-.4-.1.1-1.4.2-2.8.3-4.2.2 0 .4 0 .6.1 2 .2 2.6-.2 2.6-1.8v-14.2h5.5v14.3c0 4.3-1.4 6.3-5.2 6.3"/><path d="m107.6 12.9v12.6c0 4.9-2.5 8-8.6 8-5.8 0-8.6-3.3-8.6-8.3v-12.3h5.5v13.3c0 2 1.7 2.9 3.2 2.9s3.2-.8 3.2-2.9v-13.3z"/><path d="m145.1 13.1c0-.1.1-.1.1-.2h6.2c-.1.1-.2.2-.3.4-2 2.8-6 8.4-6 8.4s4.6 8.1 6.5 11.5c.1.1.2.3.2.4h-6.2c-.1-.1-.1-.2-.2-.4-.9-1.8-3.8-7.2-3.8-7.2-.8 1.2-1.7 2.4-2.5 3.5v4h-5.5v-20.6h5.5v9.4c.1 0 4.3-6.4 6-9.2"/><path d="m167.5 22.9c2.4-.7 3.6-2.3 3.6-4.6 0-3.4-2.2-5.4-6-5.4h-11v20.6h11.9c3.6 0 5.8-2.2 5.8-5.6 0-2.4-1.6-4.8-4.3-5m-7.9-5.7h4.1c1.2 0 1.9.7 1.9 1.9s-.7 1.9-1.9 1.9h-4.1zm4.4 12.1h-4.4v-4.5h4.4c1.2 0 2.1.9 2.1 2.2 0 1.5-.8 2.3-2.1 2.3"/><path d="m207.9 17.3v16.2h-5.6v-16.2h-5.6v-4.4h16.6v4.4z"/><path d="m203.7 43.4c.1-.2.3-.3.4-.5.6.6 1.2.8 2 .8s1.3-.4 1.3-1c0-.6-.3-.9-1.5-1.1-1.4-.3-2-.7-2-1.7 0-.9.8-1.6 2-1.6.9 0 1.5.2 2.1.7-.1.2-.3.3-.4.5-.6-.5-1.1-.6-1.7-.6-.8 0-1.3.4-1.3 1 0 .6.3.9 1.6 1.2s1.9.8 1.9 1.7c0 1-.9 1.7-2 1.7-.9-.1-1.7-.5-2.4-1.1"/><path d="m199.6 38.9h-2v-.6h4.7v.6h-2v5.4h-.7z"/><path d="m193.3 38.2c-1.8 0-3 1.4-3 3.1 0 1.6 1.2 3.1 3 3.1s3-1.4 3-3.1c0-1.7-1.2-3.1-3-3.1m2.3 3.1c0 1.4-1 2.4-2.3 2.4-1.4 0-2.3-1.1-2.3-2.5 0-1.4 1-2.4 2.3-2.4s2.3 1.1 2.3 2.5z"/><path d="m187.2 41.2c.5-.2.9-.6.9-1.4 0-.4-.1-.7-.4-1s-.9-.5-1.6-.5h-2.5v6h2.6c1.3 0 2.2-.6 2.2-1.6.1-.9-.5-1.3-1.2-1.5m-2.9-2.3h1.8c.9 0 1.3.4 1.3 1 0 .7-.6 1.1-1.4 1.1h-1.8v-2.1zm3.5 3.7c0 .7-.6 1.1-1.5 1.1h-2v-2.1h1.9c1 0 1.6.3 1.6 1z"/><path d="m178.5 38.2c-1.8 0-3 1.4-3 3.1 0 1.6 1.2 3.1 3 3.1s3-1.4 3-3.1c.1-1.7-1.2-3.1-3-3.1m2.4 3.1c0 1.4-1 2.4-2.3 2.4-1.4 0-2.3-1.1-2.3-2.5 0-1.4 1-2.4 2.3-2.4s2.3 1.1 2.3 2.5z"/><path d="m172 41.8c.9-.2 1.6-.7 1.6-1.7 0-.5-.2-.9-.5-1.2-.4-.4-1-.6-1.7-.6h-2.6v6h.7v-2.3h1.7c.6.8 1.2 1.5 1.7 2.3h.8c-.5-.8-1.1-1.6-1.7-2.5m-2.4-.4v-2.4h1.8c1 0 1.5.4 1.5 1.2 0 .8-.6 1.2-1.5 1.2z"/><path d="m158.3 38.3h.6l3.8 4.8v-4.8h.6v6h-.5l-3.9-4.9v4.9h-.6z"/><path d="m147.7 38.3h.7l1.7 5 1.7-5h.5l1.7 5 1.7-5h.7l-2.1 6h-.6l-1.7-4.8-1.6 4.8h-.6z"/><path d="m143.3 38.2c-1.8 0-3 1.4-3 3.1 0 1.6 1.2 3.1 3 3.1s3-1.4 3-3.1c.1-1.7-1.1-3.1-3-3.1m2.4 3.1c0 1.4-1 2.4-2.3 2.4-1.4 0-2.3-1.1-2.3-2.5 0-1.4 1-2.4 2.3-2.4s2.3 1.1 2.3 2.5z"/><path d="m133.6 41.8c.9-.2 1.6-.7 1.6-1.7 0-.5-.2-.9-.5-1.2-.4-.4-1-.6-1.7-.6h-2.6v6h.7v-2.3h1.7c.6.8 1.2 1.5 1.7 2.3h.8c-.5-.8-1.1-1.6-1.7-2.5m-2.4-.4v-2.4h1.8c1 0 1.5.4 1.5 1.2 0 .8-.6 1.2-1.5 1.2z"/><path d="m123.3 41.8v-3.5h.7v3.4c0 1.3.7 2 1.8 2s1.8-.7 1.8-2v-3.5h.7v3.4c0 1.7-1 2.6-2.5 2.6-1.5.2-2.5-.7-2.5-2.4"/><path d="m118.2 38.2c-1.8 0-3 1.4-3 3.1 0 1.6 1.2 3.1 3 3.1s3-1.4 3-3.1c.1-1.7-1.2-3.1-3-3.1m2.4 3.1c0 1.4-1 2.4-2.3 2.4s-2.3-1.1-2.3-2.5c0-1.4 1-2.4 2.3-2.4s2.3 1.1 2.3 2.5z"/><path d="m111 41.9-2.4-3.6h.8l2 3 2-3h.8l-2.5 3.6v2.4h-.7z"/><path d="m99.6 38.3h4.3v.6h-3.7v2.1h3.3v.6h-3.3v2.1h3.7v.6h-4.3z"/><path d="m92.8 38.3h.6v3.6l3.4-3.6h.9l-2.5 2.6 2.6 3.4h-.8l-2.3-2.9-1.3 1.3v1.6h-.6z"/><path d="m88.2 38.3h-.6l-2.7 6h.7l.7-1.6h3.2l.7 1.6h.7zm-1.7 3.8 1.4-3 1.4 3z"/><path d="m77.3 38.3h.7l2.1 3.3 2.2-3.3h.7v6h-.7v-4.8l-2.2 3.1-2.2-3.1v4.8h-.6z"/><path d="m184.8 13c-5.9 0-10.3 4.6-10.3 10.3s4.4 10.3 10.3 10.3 10.3-4.6 10.3-10.3-4.4-10.3-10.3-10.3m0 15.6c-3.1 0-4.9-2.3-4.9-5.3s1.7-5.3 4.9-5.3c3.1 0 4.9 2.4 4.9 5.3 0 3-1.8 5.3-4.9 5.3"/></g><path d="m36 18.2c-1.4 0-2.6-.7-3.2-1.9-.5-.9-.5-1.8-.3-2.8.3-.9.9-1.7 1.8-2.1.5-.3 1.1-.4 1.7-.4 1.4 0 2.6.7 3.2 1.9.9 1.8.3 4-1.5 4.9-.5.3-1.1.4-1.7.4zm0-6.4c-.4 0-.9.1-1.3.3-.6.3-1.1.9-1.3 1.6s-.1 1.4.2 2.1c.5.9 1.4 1.5 2.4 1.5.4 0 .9-.1 1.3-.3 1.3-.7 1.9-2.4 1.1-3.7-.4-.9-1.4-1.5-2.4-1.5z" fill="#00d851"/><path d="m36.7 15.8c-.7.4-1.5.1-1.8-.6-.4-.7-.1-1.5.6-1.8.7-.4 1.5-.1 1.8.6.3.6 0 1.4-.6 1.8" fill="#00d851"/><path d="m50.4 18.2c-1.4 0-2.6-.7-3.2-1.9-.9-1.8-.2-4 1.5-4.9.5-.3 1.1-.4 1.7-.4 1.4 0 2.6.7 3.2 1.9.9 1.8.3 4-1.5 4.9-.6.3-1.1.4-1.7.4zm0-6.4c-.4 0-.9.1-1.3.3-1.3.7-1.9 2.4-1.1 3.7.5.9 1.4 1.5 2.4 1.5.4 0 .9-.1 1.3-.3 1.3-.7 1.9-2.4 1.1-3.7-.5-.9-1.4-1.5-2.4-1.5z" fill="#00d851"/><path d="m51 15.8c-.7.4-1.5.1-1.8-.6-.4-.7-.1-1.5.6-1.8.7-.4 1.5-.1 1.8.6.3.6.1 1.4-.6 1.8" fill="#00d851"/><path d="m22.6 18.4c.6 4.5 1.2 9.1 1.8 13.6.3 2.3.6 4.5.9 6.8.1.4.1.8.2 1.3 0 .2.1.4.1.6s.1.4.2.6c.2.3.4.4.8.4s.6-.2.9-.3c.8-.2 1.6-.3 2.4-.3 3.1 0 5.9 1.6 7.6 4.2 1.1 1.7 1.5 3.3 1.3 5.3-.1.9-.2 1.7-.5 2.5-.1.3-.1.6 0 .9.4.7.9.5 1.5.5h1 2.1 4.2 2.6c2.2 0 4.1.1 6.1-1.2 3.1-2.1 3-4.9 3.4-8 .4-3 .8-6 1.2-8.9.8-6 1.5-11.9 2.3-17.9.1-.7-.5-1.2-1.2-1-12.6 3.4-25.2 3.3-37.8 0-.6-.3-1.2.2-1.1.9" fill="#00d851"/><path d="m62.2 10h-19.5-19.6c-.6 0-1-.5-.9-1.1.4-3 2.8-5.3 5.6-5.3h7.1c.3 0 .6-.2.8-.4.8-.9 1.6-1.9 2.4-2.8.2-.3.6-.5 1-.5h3.6 3.6c.4 0 .7.2 1 .5.8.9 1.6 1.9 2.4 2.8.2.2.5.4.8.4h7.1c2.8 0 5.1 2.3 5.6 5.3 0 .6-.4 1.1-1 1.1" fill="#00d851"/><path d="m19.4 28.2h-11.5c-.5 0-.9-.4-.9-.9s.4-.9.9-.9h11.5c.5 0 .9.4.9.9s-.4.9-.9.9" fill="#00d851"/><path d="m20 33.8h-19.1c-.5 0-.9-.4-.9-.9s.4-.9.9-.9h19.1c.5 0 .9.4.9.9s-.4.9-.9.9" fill="#00d851"/><path d="m20.6 39.5h-11.2c-.5 0-.9-.4-.9-.9s.4-.9.9-.9h11.2c.5 0 .9.4.9.9s-.4.9-.9.9" fill="#00d851"/><path d="m29.8 43c-3.9 0-7.1 3.2-7.1 7.1s3.2 7.1 7.1 7.1 7.1-3.2 7.1-7.1-3.1-7.1-7.1-7.1m0 10.4c-1.8 0-3.3-1.5-3.3-3.3s1.5-3.3 3.3-3.3 3.3 1.5 3.3 3.3c.1 1.8-1.4 3.3-3.3 3.3" fill="#00d851"/></svg>